<svg xmlns="http://www.w3.org/2000/svg" viewBox="0 0 420 480" width="420" height="480">
  <defs>
    <linearGradient id="knitGrad" x1="0" y1="0" x2="0.2" y2="1">
      <stop offset="0%" stop-color="#f0ead8"/>
      <stop offset="100%" stop-color="#e2d8c2"/>
    </linearGradient>
  </defs>
  <!-- Body — slightly wider for knitwear -->
  <path d="M115 0 L70 15 L0 85 L10 150 L70 105 L65 470 L355 470 L350 105 L410 150 L420 85 L350 15 L305 0 Q270 55 210 60 Q150 55 115 0 Z" fill="url(#knitGrad)" stroke="#d4cbb5" stroke-width="1.5"/>
  <!-- Ribbed neckline -->
  <path d="M115 0 Q150 55 210 60 Q270 55 305 0" fill="none" stroke="#c8bda5" stroke-width="3"/>
  <!-- Knit texture lines (subtle horizontal) -->
  <line x1="75" y1="140" x2="345" y2="140" stroke="#d8cfb8" stroke-width="0.7" opacity="0.3"/>
  <line x1="72" y1="180" x2="348" y2="180" stroke="#d8cfb8" stroke-width="0.7" opacity="0.3"/>
  <line x1="70" y1="220" x2="350" y2="220" stroke="#d8cfb8" stroke-width="0.7" opacity="0.3"/>
  <line x1="68" y1="260" x2="352" y2="260" stroke="#d8cfb8" stroke-width="0.7" opacity="0.3"/>
  <line x1="66" y1="300" x2="354" y2="300" stroke="#d8cfb8" stroke-width="0.7" opacity="0.3"/>
  <line x1="66" y1="340" x2="354" y2="340" stroke="#d8cfb8" stroke-width="0.7" opacity="0.3"/>
  <line x1="66" y1="380" x2="354" y2="380" stroke="#d8cfb8" stroke-width="0.7" opacity="0.3"/>
  <line x1="66" y1="420" x2="354" y2="420" stroke="#d8cfb8" stroke-width="0.7" opacity="0.3"/>
  <!-- Ribbed hem -->
  <line x1="65" y1="455" x2="355" y2="455" stroke="#c8bda5" stroke-width="2" opacity="0.5"/>
  <line x1="65" y1="462" x2="355" y2="462" stroke="#c8bda5" stroke-width="2" opacity="0.4"/>
  <!-- Fold shadows -->
  <line x1="145" y1="100" x2="140" y2="465" stroke="#ccc4b0" stroke-width="1" opacity="0.2"/>
  <line x1="275" y1="100" x2="280" y2="465" stroke="#ccc4b0" stroke-width="1" opacity="0.2"/>
</svg>
