<svg xmlns="http://www.w3.org/2000/svg" viewBox="0 0 400 450" width="400" height="450">
  <defs>
    <linearGradient id="teeGrad" x1="0" y1="0" x2="0.3" y2="1">
      <stop offset="0%" stop-color="#f5f0e8"/>
      <stop offset="100%" stop-color="#e8e0d4"/>
    </linearGradient>
  </defs>
  <path d="M120 0 L80 10 L0 70 L40 120 L80 90 L80 440 L320 440 L320 90 L360 120 L400 70 L320 10 L280 0 Q250 50 200 50 Q150 50 120 0 Z" fill="url(#teeGrad)" stroke="#d4cdc0" stroke-width="1.5"/>
  <path d="M120 0 Q150 50 200 50 Q250 50 280 0" fill="none" stroke="#c8bfb0" stroke-width="2.5"/>
  <line x1="200" y1="55" x2="200" y2="435" stroke="#d8d0c4" stroke-width="1" opacity="0.25"/>
  <line x1="130" y1="95" x2="135" y2="430" stroke="#d8d0c4" stroke-width="1" opacity="0.15"/>
  <line x1="270" y1="95" x2="265" y2="430" stroke="#d8d0c4" stroke-width="1" opacity="0.15"/>
</svg>
